<?xml version="1.0" encoding="UTF-8" standalone="no"?>
<!-- Created with Inkscape (http://www.inkscape.org/) -->

<svg
   width="1024"
   height="1024"
   viewBox="0 0 270.93333 270.93333"
   version="1.1"
   id="svg1"
   inkscape:version="1.4.2 (f4327f4, 2025-05-13)"
   sodipodi:docname="app-icon.svg"
   inkscape:export-filename="app-icon.png"
   inkscape:export-xdpi="96"
   inkscape:export-ydpi="96"
   xmlns:inkscape="http://www.inkscape.org/namespaces/inkscape"
   xmlns:sodipodi="http://sodipodi.sourceforge.net/DTD/sodipodi-0.dtd"
   xmlns:xlink="http://www.w3.org/1999/xlink"
   xmlns="http://www.w3.org/2000/svg"
   xmlns:svg="http://www.w3.org/2000/svg">
  <sodipodi:namedview
     id="namedview1"
     pagecolor="#000000"
     bordercolor="#393939"
     borderopacity="0.57254902"
     inkscape:showpageshadow="2"
     inkscape:pageopacity="0.0"
     inkscape:pagecheckerboard="false"
     inkscape:deskcolor="#222222"
     inkscape:document-units="px"
     inkscape:zoom="1.4142136"
     inkscape:cx="335.52217"
     inkscape:cy="491.08566"
     inkscape:window-width="1511"
     inkscape:window-height="1717"
     inkscape:window-x="8914"
     inkscape:window-y="386"
     inkscape:window-maximized="0"
     inkscape:current-layer="layer1" />
  <defs
     id="defs1">
    <linearGradient
       id="linearGradient2"
       inkscape:collect="always">
      <stop
         style="stop-color:#070707;stop-opacity:1;"
         offset="0"
         id="stop2" />
      <stop
         style="stop-color:#434343;stop-opacity:1;"
         offset="1"
         id="stop3" />
    </linearGradient>
    <linearGradient
       inkscape:collect="always"
       xlink:href="#linearGradient2"
       id="linearGradient3"
       x1="280.45834"
       y1="281.51666"
       x2="0"
       y2="0"
       gradientUnits="userSpaceOnUse" />
    <linearGradient
       inkscape:collect="always"
       xlink:href="#linearGradient10"
       id="linearGradient7"
       x1="540.92609"
       y1="48.872143"
       x2="666.33551"
       y2="198.32933"
       gradientUnits="userSpaceOnUse"
       gradientTransform="matrix(1.2434143,0,0,1.2434143,-614.43915,-13.413154)" />
    <linearGradient
       id="linearGradient10">
      <stop
         style="stop-color:#a11010;stop-opacity:1;"
         offset="0.18969926"
         id="stop9" />
      <stop
         style="stop-color:#cec81c;stop-opacity:1;"
         offset="0.63229883"
         id="stop10" />
    </linearGradient>
  </defs>
  <g
     inkscape:label="Layer 1"
     inkscape:groupmode="layer"
     id="layer1">
    <rect
       style="fill:url(#linearGradient3);fill-opacity:1;stroke:none;stroke-width:0.265;stroke-dasharray:none;font-variation-settings:normal;opacity:1;vector-effect:none;stroke-linecap:butt;stroke-linejoin:miter;stroke-miterlimit:4;stroke-dashoffset:0;stroke-opacity:1;-inkscape-stroke:none;stop-color:#000000;stop-opacity:1"
       id="rect1"
       width="270.93332"
       height="270.93335"
       x="0"
       y="0"
       rx="31.75"
       ry="31.75" />
    <path
       id="path9-3"
       style="baseline-shift:baseline;display:inline;overflow:visible;vector-effect:none;fill:url(#linearGradient7);fill-opacity:1;stroke:none;stroke-width:1.24341;stroke-linecap:round;enable-background:accumulate;stop-color:#000000"
       inkscape:label="path9-3"
       d="m 70.521242,42.862499 c -20.623418,0 -37.35091,16.727512 -37.35091,37.350919 v 64.181962 c 0,20.62342 16.727492,37.3509 37.35091,37.3509 20.623418,0 37.353458,-16.72748 37.353458,-37.3509 V 80.213418 c 0,-20.623407 -16.73004,-37.350919 -37.353458,-37.350919 z m 186.899768,18.466304 -4.82043,0.01239 c -16.63624,0.04489 -48.09051,-0.273779 -59.16427,0.158068 -4.59975,0.179385 -16.00429,1.182042 -26.05356,9.194282 -2.98726,2.381746 -16.39529,10.905341 -18.92318,28.372524 -1.41049,9.746233 -2.11568,20.867423 -2.71927,32.047283 1.46834,-15.72295 18.72621,-24.75703 33.69608,-25.40394 0,0 1.53604,-3.06149 2.80667,-4.90203 2.35916,-3.417287 5.69436,-5.814903 11.03006,-6.374762 17.32369,-1.817747 30.84251,1.880991 46.47257,-4.031371 8.26817,-3.127597 14.3655,-10.967895 16.80852,-24.331517 z M 44.679725,79.597208 h 13.322684 c 3.288407,0 5.935888,2.647488 5.935888,5.935897 0,3.288407 -2.647481,5.935897 -5.935888,5.935897 H 44.679725 c -3.288409,0 -5.935899,-2.64749 -5.935899,-5.935897 0,-3.288409 2.64749,-5.935897 5.935899,-5.935897 z m 38.165665,0 h 13.322684 c 3.288392,0 5.935856,2.647488 5.935856,5.935897 0,3.288407 -2.647464,5.935897 -5.935856,5.935897 H 82.84539 c -3.288409,0 -5.935884,-2.64749 -5.935884,-5.935897 0,-3.288409 2.647475,-5.935897 5.935884,-5.935897 z M 44.679725,98.041666 h 13.322684 c 3.288407,0 5.935888,2.646844 5.935888,5.935244 0,3.28841 -2.647481,5.9359 -5.935888,5.9359 H 44.679725 c -3.288409,0 -5.935899,-2.64749 -5.935899,-5.9359 0,-3.2884 2.64749,-5.935244 5.935899,-5.935244 z m 38.165665,0 h 13.322684 c 3.288392,0 5.935856,2.646844 5.935856,5.935244 0,3.28841 -2.647464,5.9359 -5.935856,5.9359 H 82.84539 c -3.288409,0 -5.935884,-2.64749 -5.935884,-5.9359 0,-3.2884 2.647475,-5.935244 5.935884,-5.935244 z m 147.95468,14.019194 c -1.52586,0.008 -3.05168,0.0133 -4.57754,0.0174 -16.409,0.0443 -36.26189,-0.0853 -47.00332,0.33349 -5.45277,0.21265 -13.86685,3.20271 -21.40278,10.27055 -4.21572,3.95386 -6.86289,9.01934 -8.78241,14.59172 -3.0974,9.08514 -4.11597,18.9125 -5.26893,26.83811 -0.71298,4.81532 -1.39988,8.91135 -2.11142,12.57926 -1.13144,2.95219 -2.14912,5.79387 -3.32456,8.4155 -2.04892,4.55714 -4.5624,8.63982 -7.72991,11.9476 -4.52152,4.80561 -10.42043,8.12567 -15.89738,10.42154 -16.825545,7.0294 -30.102903,7.24994 -30.102903,7.24994 0,0 3.18361,0.21525 8.745778,0.0919 5.280774,-0.11709 13.802015,-0.61574 22.804155,-3.19221 6.12235,-1.74776 12.97961,-4.75227 18.87368,-9.98011 4.08543,-3.67986 7.41162,-8.25062 9.98462,-13.33746 2.14296,-4.22582 3.733,-8.55038 5.5266,-12.51047 1.25889,-2.78887 2.40595,-5.56719 3.55201,-8.30757 2.22575,-5.32079 4.25207,-9.69779 7.01732,-13.16655 2.76526,-3.46875 6.23874,-6.18921 12.06007,-8.35639 4.41713,-1.6444 11.10846,-1.53872 18.24589,-1.42517 6.91441,0.11003 15.01701,0.12 21.58078,-3.11767 6.92344,-3.41511 14.63746,-10.67827 17.1857,-24.61746 0.28708,-1.57037 0.49548,-3.15472 0.62455,-4.74589 z m -186.120345,4.42461 h 13.322684 c 3.288407,0 5.935888,2.64749 5.935888,5.9359 0,3.28841 -2.647481,5.9359 -5.935888,5.9359 H 44.679725 c -3.288409,0 -5.935899,-2.64749 -5.935899,-5.9359 0,-3.28841 2.64749,-5.9359 5.935899,-5.9359 z m 38.165665,0 h 13.322684 c 3.288392,0 5.935856,2.64749 5.935856,5.9359 0,3.28841 -2.647464,5.9359 -5.935856,5.9359 H 82.84539 c -3.288409,0 -5.935884,-2.64749 -5.935884,-5.9359 0,-3.28841 2.647475,-5.9359 5.935884,-5.9359 z m -64.011041,8.15592 c -2.212956,2.4e-4 -4.006713,1.794 -4.006952,4.00695 v 16.60612 c 0,29.22965 22.854366,53.07092 51.686895,54.64713 v 29.76945 H 39.307354 c -2.21297,2.1e-4 -4.007365,1.79399 -4.007602,4.00695 2.28e-4,2.21296 1.794632,4.00673 4.007602,4.00695 h 62.430336 c 2.21298,-2.2e-4 4.00673,-1.79399 4.00695,-4.00695 -2.3e-4,-2.21296 -1.79397,-4.00674 -4.00695,-4.00695 H 74.530768 v -29.76945 c 28.832522,-1.57621 51.686872,-25.41748 51.686872,-54.64713 v -16.60612 c -2.3e-4,-2.21295 -1.79463,-4.00671 -4.00759,-4.00695 -2.21391,-9.5e-4 -4.00929,1.79304 -4.00952,4.00695 v 16.60612 c 0,25.9491 -20.763825,46.71548 -46.712881,46.71548 h -1.930876 c -25.949085,0 -46.715468,-20.76638 -46.715468,-46.71548 v -16.60612 c -2.39e-4,-2.21295 -1.794001,-4.00671 -4.006956,-4.00695 z m 159.481431,25.58579 c -2.30253,0.31028 -4.54679,1.057 -6.59965,2.16861 -0.59543,0.27815 -1.16824,0.59248 -1.71884,0.93877 -6.88549,5.91959 -10.1769,15.74448 -14.25375,25.79589 -4.48182,11.04984 -11.98168,20.97477 -20.61819,29.24256 5.36315,-2.3783 10.19509,-5.04079 14.49982,-7.87127 14.56845,-9.57927 23.16876,-20.86992 25.90064,-30.38822 1.51212,-5.26843 2.34536,-11.78569 2.78997,-19.88634 z" />
  </g>
</svg>
