<?xml version="1.0" encoding="UTF-8" standalone="no"?>
<!-- Created with Inkscape (http://www.inkscape.org/) -->

<svg
   width="512"
   height="512"
   viewBox="0 0 512 512.00001"
   version="1.1"
   id="svg1"
   inkscape:version="1.4.2 (f4327f4, 2025-05-13)"
   sodipodi:docname="flowstt-icon.svg"
   xml:space="preserve"
   xmlns:inkscape="http://www.inkscape.org/namespaces/inkscape"
   xmlns:sodipodi="http://sodipodi.sourceforge.net/DTD/sodipodi-0.dtd"
   xmlns:xlink="http://www.w3.org/1999/xlink"
   xmlns="http://www.w3.org/2000/svg"
   xmlns:svg="http://www.w3.org/2000/svg"><sodipodi:namedview
     id="namedview1"
     pagecolor="#000000"
     bordercolor="#767676"
     borderopacity="0.24705882"
     inkscape:showpageshadow="2"
     inkscape:pageopacity="0.0"
     inkscape:pagecheckerboard="0"
     inkscape:deskcolor="#2a2a2a"
     inkscape:document-units="mm"
     showgrid="true"
     inkscape:zoom="2.494105"
     inkscape:cx="106.85196"
     inkscape:cy="248.58617"
     inkscape:window-width="3840"
     inkscape:window-height="2054"
     inkscape:window-x="-11"
     inkscape:window-y="-11"
     inkscape:window-maximized="1"
     inkscape:current-layer="layer2"><inkscape:grid
       id="grid1"
       units="mm"
       originx="-348.36264"
       originy="-95.380859"
       spacingx="0.99999998"
       spacingy="1"
       empcolor="#0099e5"
       empopacity="0.30196078"
       color="#0099e5"
       opacity="0.14901961"
       empspacing="5"
       enabled="true"
       visible="true" /></sodipodi:namedview><defs
     id="defs1"><linearGradient
       id="linearGradient14"
       inkscape:collect="always"><stop
         style="stop-color:#bbbbbb;stop-opacity:1;"
         offset="0"
         id="stop14" /><stop
         style="stop-color:#bbbbbb;stop-opacity:0;"
         offset="1"
         id="stop15" /></linearGradient><linearGradient
       id="linearGradient10"><stop
         style="stop-color:#a11010;stop-opacity:1;"
         offset="0.18969926"
         id="stop9" /><stop
         style="stop-color:#cec81c;stop-opacity:1;"
         offset="0.63229883"
         id="stop10" /></linearGradient><linearGradient
       id="linearGradient4"><stop
         style="stop-color:#b5b5b5;stop-opacity:1;"
         offset="0.26353809"
         id="stop7" /><stop
         style="stop-color:#1330a9;stop-opacity:1;"
         offset="0.63150686"
         id="stop8" /></linearGradient><inkscape:path-effect
       effect="taper_stroke"
       start_shape="center"
       end_shape="center"
       id="path-effect9"
       is_visible="true"
       lpeversion="1"
       stroke_width="6.4459901"
       subpath="1"
       attach_start="1.1950066"
       end_offset="0.7392974"
       start_smoothing="0.5"
       end_smoothing="0.5"
       jointype="extrapolated"
       miter_limit="100" /><inkscape:path-effect
       effect="taper_stroke"
       start_shape="center"
       end_shape="center"
       id="path-effect9-4"
       is_visible="true"
       lpeversion="1"
       stroke_width="6.4459901"
       subpath="1"
       attach_start="1.1950066"
       end_offset="0.52086481"
       start_smoothing="0.5"
       end_smoothing="0.5"
       jointype="extrapolated"
       miter_limit="100" /><inkscape:path-effect
       effect="taper_stroke"
       start_shape="center"
       end_shape="center"
       id="path-effect9-0"
       is_visible="true"
       lpeversion="1"
       stroke_width="6.4459901"
       subpath="1"
       attach_start="1.1950066"
       end_offset="0.7392974"
       start_smoothing="0.5"
       end_smoothing="0.5"
       jointype="extrapolated"
       miter_limit="100" /><inkscape:path-effect
       effect="taper_stroke"
       start_shape="center"
       end_shape="center"
       id="path-effect9-1"
       is_visible="true"
       lpeversion="1"
       stroke_width="6.4459901"
       subpath="1"
       attach_start="1.1950066"
       end_offset="0.7392974"
       start_smoothing="0.5"
       end_smoothing="0.5"
       jointype="extrapolated"
       miter_limit="100" /><inkscape:path-effect
       effect="taper_stroke"
       start_shape="center"
       end_shape="center"
       id="path-effect9-5"
       is_visible="true"
       lpeversion="1"
       stroke_width="6.4459901"
       subpath="1"
       attach_start="1.1950066"
       end_offset="0.7392974"
       start_smoothing="0.5"
       end_smoothing="0.5"
       jointype="extrapolated"
       miter_limit="100" /><linearGradient
       inkscape:collect="always"
       xlink:href="#linearGradient10"
       id="linearGradient7"
       x1="540.92609"
       y1="48.872143"
       x2="666.33551"
       y2="198.32933"
       gradientUnits="userSpaceOnUse"
       gradientTransform="matrix(2.6169148,0,0,2.6169148,-976.00435,28.941983)" /><linearGradient
       inkscape:collect="always"
       xlink:href="#linearGradient14"
       id="linearGradient15"
       x1="790.63727"
       y1="242.20213"
       x2="1048.8027"
       y2="242.20213"
       gradientUnits="userSpaceOnUse" /><linearGradient
       id="linearGradient9"><stop
         style="stop-color:#129df5;stop-opacity:1;"
         offset="0"
         id="stop9-7" /><stop
         style="stop-color:#8544ec;stop-opacity:1;"
         offset="1"
         id="stop10-5" /></linearGradient><linearGradient
       xlink:href="#linearGradient9"
       id="linearGradient10-6"
       x1="828.6615"
       y1="385.00339"
       x2="1251.6154"
       y2="765.8327"
       gradientUnits="userSpaceOnUse"
       gradientTransform="translate(-69.655155,-298.26697)" /></defs><g
     inkscape:groupmode="layer"
     id="layer2"
     inkscape:label="Layer 2"
     style="opacity:1"
     transform="translate(-348.36264,-95.380863)"><path
       id="path9-3"
       style="baseline-shift:baseline;display:inline;overflow:visible;opacity:1;vector-effect:none;fill:url(#linearGradient7);fill-opacity:1;stroke:none;stroke-width:2.61691;stroke-linecap:round;enable-background:accumulate;stop-color:#000000;stop-opacity:1"
       inkscape:label="path9-3"
       d="m 465.57703,147.38086 c -43.40446,0 -78.60948,35.20506 -78.60948,78.6095 v 135.07865 c 0,43.40447 35.20502,78.60948 78.60948,78.60948 43.40446,0 78.61489,-35.20501 78.61489,-78.60948 V 225.99036 c 0,-43.40444 -35.21043,-78.6095 -78.61489,-78.6095 z m 393.35307,38.86456 -10.14518,0.0262 c -35.01298,0.0945 -101.21226,-0.5762 -124.5183,0.33268 -9.68073,0.37755 -33.68296,2.48775 -54.83287,19.35047 -6.28706,5.01267 -34.50583,22.9516 -39.82607,59.71339 -2.96857,20.51213 -4.4527,43.918 -5.72303,67.44736 3.09029,-33.09083 39.41152,-52.10413 70.91742,-53.46563 0,0 3.23278,-6.44329 5.90698,-10.31693 4.96512,-7.19209 11.98447,-12.23816 23.21407,-13.41645 36.45978,-3.82567 64.91179,3.95877 97.80714,-8.48451 17.40136,-6.5824 30.2339,-23.08325 35.37554,-51.2086 z m -447.73965,38.44805 h 28.03919 c 6.92085,0 12.49279,5.57196 12.49279,12.49281 0,6.92085 -5.57194,12.49281 -12.49279,12.49281 h -28.03919 c -6.92085,0 -12.49281,-5.57196 -12.49281,-12.49281 0,-6.92085 5.57196,-12.49281 12.49281,-12.49281 z m 80.32423,0 h 28.0392 c 6.92085,0 12.49278,5.57196 12.49278,12.49281 0,6.92085 -5.57193,12.49281 -12.49278,12.49281 h -28.0392 c -6.92085,0 -12.49278,-5.57196 -12.49278,-12.49281 0,-6.92085 5.57193,-12.49281 12.49278,-12.49281 z m -80.32423,38.81858 h 28.03919 c 6.92085,0 12.49279,5.5706 12.49279,12.49145 0,6.92085 -5.57194,12.49281 -12.49279,12.49281 h -28.03919 c -6.92085,0 -12.49281,-5.57196 -12.49281,-12.49281 0,-6.92085 5.57196,-12.49145 12.49281,-12.49145 z m 80.32423,0 h 28.0392 c 6.92085,0 12.49278,5.5706 12.49278,12.49145 0,6.92085 -5.57193,12.49281 -12.49278,12.49281 h -28.0392 c -6.92085,0 -12.49278,-5.57196 -12.49278,-12.49281 0,-6.92085 5.57193,-12.49145 12.49278,-12.49145 z m 311.38845,29.50509 c -3.21135,0.0157 -6.42261,0.028 -9.63399,0.0366 -34.53469,0.0932 -76.3175,-0.17952 -98.92414,0.70186 -11.47601,0.44755 -29.18444,6.74049 -45.04469,21.61561 -8.8725,8.32137 -14.4438,18.98229 -18.48364,30.71002 -6.51886,19.12078 -8.66256,39.80364 -11.0891,56.48404 -1.50056,10.13442 -2.9462,18.75498 -4.44373,26.47454 -2.38126,6.21324 -4.52307,12.19391 -6.99695,17.71144 -4.3122,9.59104 -9.60211,18.18353 -16.26852,25.14517 -9.51607,10.11399 -21.93103,17.10146 -33.45794,21.93341 -35.41143,14.79418 -63.35524,15.25834 -63.35524,15.25834 0,0 6.70029,0.45304 18.40654,0.19339 11.11406,-0.24651 29.04804,-1.29587 47.99414,-6.71835 12.88522,-3.67841 27.31714,-10.00172 39.72194,-21.00435 8.59827,-7.74471 15.59862,-17.36444 21.01383,-28.07029 4.51012,-8.89376 7.85655,-17.99532 11.63137,-26.32982 2.64952,-5.86948 5.06363,-11.71679 7.47566,-17.48426 4.68436,-11.19823 8.94896,-20.41016 14.76877,-27.71057 5.81984,-7.30041 13.13019,-13.02595 25.38185,-17.58703 9.29641,-3.46084 23.37912,-3.23843 38.40071,-2.99945 14.5522,0.23159 31.60509,0.25253 45.41931,-6.5615 14.57121,-7.18751 30.80632,-22.47372 36.16937,-51.81041 0.6042,-3.30503 1.04282,-6.63948 1.31445,-9.98829 z m -391.71268,9.31213 h 28.03919 c 6.92085,0 12.49279,5.57196 12.49279,12.49281 0,6.92085 -5.57194,12.49281 -12.49279,12.49281 h -28.03919 c -6.92085,0 -12.49281,-5.57196 -12.49281,-12.49281 0,-6.92085 5.57196,-12.49281 12.49281,-12.49281 z m 80.32423,0 h 28.0392 c 6.92085,0 12.49278,5.57196 12.49278,12.49281 0,6.92085 -5.57193,12.49281 -12.49278,12.49281 h -28.0392 c -6.92085,0 -12.49278,-5.57196 -12.49278,-12.49281 0,-6.92085 5.57193,-12.49281 12.49278,-12.49281 z m -134.71893,17.1651 c -4.65743,5e-4 -8.43261,3.77569 -8.43311,8.43312 v 34.94957 c 0,61.51731 48.09976,111.69414 108.78128,115.01147 v 62.65337 h -57.26027 c -4.65746,4.7e-4 -8.43398,3.77566 -8.43448,8.43311 4.8e-4,4.65745 3.77702,8.43264 8.43448,8.43311 h 131.3922 c 4.65746,-4.7e-4 8.43264,-3.77566 8.43312,-8.43311 -5e-4,-4.65745 -3.77566,-8.43264 -8.43312,-8.43311 h -57.26029 v -62.65337 c 60.68154,-3.31733 108.7813,-53.49416 108.7813,-115.01147 v -34.94957 c -5e-4,-4.65743 -3.77705,-8.43262 -8.43447,-8.43312 -4.65945,-0.002 -8.43804,3.77367 -8.43853,8.43312 v 34.94957 c 0,54.613 -43.69997,98.31833 -98.31291,98.31833 h -4.06376 c -54.61297,0 -98.31832,-43.70533 -98.31832,-98.31833 v -34.94957 c -5e-4,-4.65743 -3.77569,-8.43262 -8.43312,-8.43312 z m 335.64788,53.84837 c -4.84595,0.65302 -9.56927,2.22458 -13.88977,4.5641 -1.25311,0.58541 -2.45867,1.24694 -3.61747,1.97575 -14.49135,12.4585 -21.41851,33.13616 -29.99872,54.29057 -9.43253,23.25573 -25.2169,44.14392 -43.39349,61.54447 11.28743,-5.0054 21.45681,-10.60892 30.51663,-16.56604 30.66105,-20.16071 48.76144,-43.92324 54.51101,-63.95565 3.18243,-11.08805 4.9361,-24.8044 5.87181,-41.8532 z" /></g></svg>
