<?xml version="1.0" encoding="UTF-8" standalone="no"?>
<!-- Created with Inkscape (http://www.inkscape.org/) -->

<svg
   width="1647.6344"
   height="380.12305"
   viewBox="0 0 435.93661 100.57422"
   version="1.1"
   id="svg1"
   xml:space="preserve"
   sodipodi:docname="flowstt-landscape.svg"
   inkscape:version="1.4.2 (ebf0e940d0, 2025-05-08)"
   xmlns:inkscape="http://www.inkscape.org/namespaces/inkscape"
   xmlns:sodipodi="http://sodipodi.sourceforge.net/DTD/sodipodi-0.dtd"
   xmlns:xlink="http://www.w3.org/1999/xlink"
   xmlns="http://www.w3.org/2000/svg"
   xmlns:svg="http://www.w3.org/2000/svg"><sodipodi:namedview
     id="namedview1"
     pagecolor="#ffffff"
     bordercolor="#000000"
     borderopacity="0.25"
     inkscape:showpageshadow="2"
     inkscape:pageopacity="0.0"
     inkscape:pagecheckerboard="0"
     inkscape:deskcolor="#d1d1d1"
     inkscape:zoom="1.1604618"
     inkscape:cx="713.07821"
     inkscape:cy="324.87068"
     inkscape:window-width="3046"
     inkscape:window-height="1664"
     inkscape:window-x="0"
     inkscape:window-y="0"
     inkscape:window-maximized="1"
     inkscape:current-layer="svg1" /><defs
     id="defs1"><linearGradient
       id="linearGradient10"><stop
         style="stop-color:#a11010;stop-opacity:1;"
         offset="0.18969926"
         id="stop9" /><stop
         style="stop-color:#cec81c;stop-opacity:1;"
         offset="0.63229883"
         id="stop10" /></linearGradient><linearGradient
       xlink:href="#linearGradient10"
       id="linearGradient7"
       x1="540.92609"
       y1="48.872143"
       x2="666.33551"
       y2="198.32933"
       gradientUnits="userSpaceOnUse"
       gradientTransform="matrix(0.64189432,0,0,0.64189432,34.914953,91.833583)" /><linearGradient
       inkscape:collect="always"
       xlink:href="#linearGradient10"
       id="linearGradient7-4"
       x1="540.92609"
       y1="48.872143"
       x2="666.33551"
       y2="198.32933"
       gradientUnits="userSpaceOnUse"
       gradientTransform="matrix(0.64189429,0,0,0.64189429,-324.84955,-29.051473)" /></defs><g
     id="layer2"
     style="opacity:1"
     transform="translate(-359.76452,-120.88506)"><path
       style="font-size:50.8px;font-family:Michroma;-inkscape-font-specification:'Michroma, Normal';font-variation-settings:'wght' 700;fill:#f9f9f9;stroke-width:0.265"
       d="m 503.74996,192.29681 v -38.1 h 35.91718 v 3.96875 h -31.15468 v 12.7 h 29.74082 v 3.96875 h -29.74082 v 17.4625 z m 42.8625,0 v -38.1 h 4.7625 v 38.1 z m 29.39355,0.54571 q -4.78731,0 -8.13594,-0.4961 -3.34863,-0.47129 -5.40742,-1.95957 -2.05879,-1.51308 -3.00137,-4.51445 -0.94258,-3.00137 -0.94258,-8.01191 0,-4.86172 0.94258,-7.78868 0.94258,-2.92695 3.00137,-4.41523 2.05879,-1.48828 5.40742,-1.98437 3.34863,-0.4961 8.13594,-0.4961 4.81211,0 8.13594,0.4961 3.34863,0.49609 5.40742,1.98437 2.05879,1.48828 3.00137,4.41523 0.94257,2.92696 0.94257,7.78868 0,5.01054 -0.94257,8.01191 -0.94258,3.00137 -3.00137,4.51445 -2.05879,1.48828 -5.40742,1.95957 -3.32383,0.4961 -8.13594,0.4961 z m 12.7248,-14.98203 q 0,-3.54707 -0.37207,-5.68028 -0.34726,-2.1332 -1.56269,-3.1998 -1.21543,-1.09141 -3.79512,-1.46348 -2.55488,-0.37207 -6.99492,-0.37207 -4.41523,0 -6.99492,0.37207 -2.57969,0.37207 -3.79512,1.46348 -1.21543,1.0666 -1.5875,3.1998 -0.34727,2.13321 -0.34727,5.68028 0,3.67109 0.34727,5.87871 0.37207,2.20761 1.5875,3.32382 1.21543,1.09141 3.79512,1.46348 2.57969,0.34727 6.99492,0.34727 4.44004,0 6.99492,-0.34727 2.57969,-0.37207 3.79512,-1.46348 1.21543,-1.11621 1.56269,-3.32382 0.37207,-2.20762 0.37207,-5.87871 z m 18.25625,14.43632 -10.96367,-28.575 h 5.40742 l 8.70645,24.73028 h 0.0496 l 9.50019,-24.73028 h 4.7625 l 9.40098,24.73028 h 0.0496 l 8.80566,-24.73028 h 5.40742 l -10.96367,28.575 h -6.35 l -8.70644,-23.14277 h -0.0496 l -8.70645,23.14277 z m 88.18067,-11.01328 q 0,-2.20761 -0.34727,-3.47265 -0.34726,-1.26504 -1.56269,-1.86035 -1.21543,-0.62012 -3.77032,-0.79375 -2.55488,-0.19844 -6.99492,-0.27286 l -13.7914,-0.19843 q -5.10977,-0.0744 -8.21036,-0.62012 -3.10058,-0.5457 -4.68808,-1.71152 -1.5875,-1.19063 -2.1332,-3.175 -0.5209,-1.98438 -0.5209,-4.96094 0,-3.24942 0.71933,-5.35781 0.74414,-2.1084 2.6541,-3.29903 1.93477,-1.19062 5.45704,-1.66191 3.52226,-0.4961 9.10332,-0.4961 h 10.6164 q 5.06016,0 8.4336,0.32247 3.37343,0.32246 5.35781,1.48828 1.98437,1.16582 2.82773,3.62148 0.86817,2.45567 0.86817,6.74688 h -4.7625 q 0,-3.32383 -0.64493,-5.01055 -0.62011,-1.71152 -2.08359,-2.33164 -1.43867,-0.62012 -3.89434,-0.66973 -2.45566,-0.0496 -6.10195,-0.0496 h -10.36836 q -4.44004,0 -7.11894,0.17364 -2.6541,0.17363 -4.01836,0.79375 -1.36426,0.62011 -1.83555,1.98437 -0.44648,1.36426 -0.44648,3.74551 0,2.00918 0.32246,3.22461 0.32246,1.21543 1.43867,1.86035 1.14102,0.62012 3.49746,0.86816 2.35645,0.22325 6.42441,0.27285 l 14.7836,0.19844 q 5.20898,0.0744 8.30957,0.62012 3.12539,0.5209 4.66328,1.71152 1.56269,1.19063 2.05879,3.22461 0.5209,2.00918 0.5209,5.08496 0,3.34864 -0.64492,5.63067 -0.62012,2.25722 -2.43086,3.62148 -1.81075,1.36426 -5.23379,1.95957 -3.42305,0.59531 -9.0041,0.59531 h -11.6086 q -5.08496,0 -8.53281,-0.44648 -3.44785,-0.44648 -5.50664,-1.78594 -2.03399,-1.36426 -2.92695,-4.04316 -0.89297,-2.67891 -0.89297,-7.14375 h 4.7625 q 0,3.49746 0.5705,5.40742 0.57051,1.90996 1.98438,2.75332 1.43867,0.81855 3.99355,0.99219 2.57969,0.14883 6.54844,0.14883 h 11.36055 q 4.44004,0 7.01972,-0.27286 2.57969,-0.29765 3.81993,-1.0914 1.24023,-0.81856 1.5875,-2.33164 0.37207,-1.51309 0.37207,-3.99356 z m 29.19511,11.01328 v -34.13125 h -19.05 v -3.96875 h 42.8625 v 3.96875 h -19.05 v 34.13125 z m 47.52579,0 v -34.13125 h -19.05 v -3.96875 h 42.8625 v 3.96875 h -19.05 v 34.13125 z"
       id="text5"
       aria-label="FlowSTT" /></g><path
     id="path9-3"
     style="baseline-shift:baseline;display:inline;overflow:visible;vector-effect:none;fill:url(#linearGradient7-4);fill-opacity:1;stroke:none;stroke-width:0.641894;stroke-linecap:round;enable-background:accumulate;stop-color:#000000"
     inkscape:label="path9-3"
     d="M 28.751126,0 C 18.10459,0 9.4692695,8.6353314 9.4692695,19.281861 v 33.132991 c 0,10.646536 8.6353205,19.281856 19.2818565,19.281856 10.646536,0 19.283185,-8.63532 19.283185,-19.281856 V 19.281861 C 48.034311,8.6353314 39.397662,0 28.751126,0 Z m 96.484264,9.5329564 -2.48848,0.00642 C 114.15869,9.5625477 97.920891,9.398043 92.204232,9.6209793 89.829679,9.7135854 83.94225,10.23119 78.75446,14.36739 c -1.542132,1.229542 -8.463819,5.629721 -9.768803,14.646898 -0.728152,5.031354 -1.09219,10.772501 -1.403784,16.543939 0.758006,-8.11674 9.66712,-12.780449 17.395098,-13.114407 0,0 0.792957,-1.580453 1.448903,-2.530604 1.217878,-1.764125 2.939632,-3.001857 5.694103,-3.290877 8.943093,-0.938385 15.921993,0.971032 23.990783,-2.081137 4.26832,-1.614576 7.41597,-5.662014 8.67715,-12.560786 z M 15.410823,18.963751 h 6.87764 c 1.697593,0 3.064314,1.366728 3.064314,3.06432 0,1.697592 -1.366721,3.06432 -3.064314,3.06432 h -6.87764 c -1.697592,0 -3.06432,-1.366728 -3.06432,-3.06432 0,-1.697592 1.366728,-3.06432 3.06432,-3.06432 z m 19.702464,0 h 6.87764 c 1.697592,0 3.064314,1.366728 3.064314,3.06432 0,1.697592 -1.366722,3.06432 -3.064314,3.06432 h -6.87764 c -1.697592,0 -3.064314,-1.366728 -3.064314,-3.06432 0,-1.697592 1.366722,-3.06432 3.064314,-3.06432 z m -19.702464,9.52168 h 6.87764 c 1.697593,0 3.064314,1.366394 3.064314,3.063986 0,1.697592 -1.366721,3.06432 -3.064314,3.06432 h -6.87764 c -1.697592,0 -3.06432,-1.366728 -3.06432,-3.06432 0,-1.697592 1.366728,-3.063986 3.06432,-3.063986 z m 19.702464,0 h 6.87764 c 1.697592,0 3.064314,1.366394 3.064314,3.063986 0,1.697592 -1.366722,3.06432 -3.064314,3.06432 h -6.87764 c -1.697592,0 -3.064314,-1.366728 -3.064314,-3.06432 0,-1.697592 1.366722,-3.063986 3.064314,-3.063986 z m 76.379433,7.237204 c -0.7877,0.0039 -1.57538,0.0069 -2.36309,0.009 -8.4709,0.02285 -18.719666,-0.04403 -24.264773,0.172156 -2.814912,0.109777 -7.158553,1.653353 -11.048862,5.302021 -2.176304,2.041121 -3.542871,4.656102 -4.533789,7.532758 -1.598991,4.690071 -2.124812,9.763302 -2.720008,13.854781 -0.368069,2.485838 -0.722664,4.600347 -1.089988,6.493852 -0.584092,1.524024 -1.10945,2.991003 -1.716258,4.344379 -1.057726,2.352555 -2.35527,4.460177 -3.990451,6.167776 -2.334165,2.480825 -5.379387,4.19476 -8.206786,5.379973 -8.685953,3.628815 -15.540197,3.742667 -15.540197,3.742667 0,0 1.643493,0.111125 4.514879,0.04744 2.726132,-0.06047 7.125097,-0.317859 11.772322,-1.647922 3.160573,-0.902266 6.70053,-2.453288 9.743263,-5.152088 2.10904,-1.899673 3.826132,-4.259264 5.154411,-6.885266 1.106272,-2.181523 1.927107,-4.414012 2.853021,-6.458355 0.649892,-1.439705 1.242039,-2.873973 1.83368,-4.288656 1.14901,-2.746775 2.19506,-5.006339 3.622582,-6.797032 1.427528,-1.790692 3.220659,-3.195093 6.225829,-4.313863 2.280284,-0.848899 5.734587,-0.794344 9.419182,-0.735727 3.569459,0.05681 7.752305,0.06194 11.140753,-1.609447 3.57412,-1.763001 7.55638,-5.512505 8.87186,-12.708403 0.1482,-0.81068 0.25579,-1.628575 0.32242,-2.449995 z m -96.081897,2.284143 h 6.87764 c 1.697593,0 3.064314,1.366727 3.064314,3.06432 0,1.697591 -1.366721,3.064319 -3.064314,3.064319 h -6.87764 c -1.697592,0 -3.06432,-1.366728 -3.06432,-3.064319 0,-1.697593 1.366728,-3.06432 3.06432,-3.06432 z m 19.702464,0 h 6.87764 c 1.697592,0 3.064314,1.366727 3.064314,3.06432 0,1.697591 -1.366722,3.064319 -3.064314,3.064319 h -6.87764 c -1.697592,0 -3.064314,-1.366728 -3.064314,-3.064319 0,-1.697593 1.366722,-3.06432 3.064314,-3.06432 z M 2.06853,42.217148 C 0.92612509,42.21727 1.2195992e-4,43.143273 0,44.285678 v 8.572665 c 0,15.089375 11.798229,27.397082 26.682596,28.21078 v 15.368032 h -14.04518 c -1.142412,1.15e-4 -2.068742,0.926118 -2.068864,2.06853 1.16e-4,1.142411 0.926452,2.068415 2.068864,2.068535 h 32.228755 c 1.142411,-1.2e-4 2.068414,-0.926124 2.06853,-2.068535 -1.22e-4,-1.142412 -0.926119,-2.068415 -2.06853,-2.06853 H 30.820985 V 81.069123 C 45.705358,80.255425 57.503587,67.947718 57.503587,52.858343 v -8.572665 c -1.22e-4,-1.142405 -0.926459,-2.068408 -2.068863,-2.06853 -1.142898,-5.71e-4 -2.069738,0.925631 -2.06986,2.06853 v 8.572665 c 0,13.39584 -10.719018,24.116174 -24.114845,24.116174 h -0.996785 c -13.395833,0 -24.1161739,-10.720334 -24.1161739,-24.116174 V 44.285678 C 4.1369381,43.143273 3.210935,42.21727 2.06853,42.217148 Z m 82.329946,13.208285 c -1.188647,0.160178 -2.347215,0.545661 -3.406976,1.119515 -0.307371,0.143591 -0.603079,0.305856 -0.887316,0.484624 -3.554535,3.055904 -5.253674,8.127858 -7.358285,13.316751 -2.313675,5.704322 -6.18537,10.827916 -10.643845,15.096038 2.768656,-1.227757 5.26307,-2.602226 7.485321,-4.063428 7.520748,-4.945154 11.960532,-10.773785 13.370825,-15.687467 0.780608,-2.719751 1.21076,-6.084188 1.440276,-10.266033 z" /></svg>
