<?xml version="1.0" encoding="UTF-8" standalone="no"?>
<!-- Created with Inkscape (http://www.inkscape.org/) -->

<svg
   width="936.59113"
   height="557.54803"
   viewBox="0 0 247.80641 147.51791"
   version="1.1"
   id="svg1"
   xml:space="preserve"
   sodipodi:docname="flowstt-portrait.svg"
   inkscape:version="1.4.2 (ebf0e940d0, 2025-05-08)"
   xmlns:inkscape="http://www.inkscape.org/namespaces/inkscape"
   xmlns:sodipodi="http://sodipodi.sourceforge.net/DTD/sodipodi-0.dtd"
   xmlns:xlink="http://www.w3.org/1999/xlink"
   xmlns="http://www.w3.org/2000/svg"
   xmlns:svg="http://www.w3.org/2000/svg"><sodipodi:namedview
     id="namedview1"
     pagecolor="#ffffff"
     bordercolor="#000000"
     borderopacity="0.25"
     inkscape:showpageshadow="2"
     inkscape:pageopacity="0.0"
     inkscape:pagecheckerboard="0"
     inkscape:deskcolor="#d1d1d1"
     inkscape:zoom="1.4435328"
     inkscape:cx="467.94919"
     inkscape:cy="278.48346"
     inkscape:window-width="3046"
     inkscape:window-height="1664"
     inkscape:window-x="0"
     inkscape:window-y="0"
     inkscape:window-maximized="1"
     inkscape:current-layer="svg1" /><defs
     id="defs1"><linearGradient
       id="linearGradient10"><stop
         style="stop-color:#a11010;stop-opacity:1;"
         offset="0.18969926"
         id="stop9" /><stop
         style="stop-color:#cec81c;stop-opacity:1;"
         offset="0.63229883"
         id="stop10" /></linearGradient><linearGradient
       xlink:href="#linearGradient10"
       id="linearGradient7"
       x1="540.92609"
       y1="48.872143"
       x2="666.33551"
       y2="198.32933"
       gradientUnits="userSpaceOnUse"
       gradientTransform="matrix(0.64189432,0,0,0.64189432,245.03679,111.33679)" /><linearGradient
       inkscape:collect="always"
       xlink:href="#linearGradient10"
       id="linearGradient7-2"
       x1="540.92609"
       y1="48.872143"
       x2="666.33551"
       y2="198.32933"
       gradientUnits="userSpaceOnUse"
       gradientTransform="matrix(0.64068171,0,0,0.64068171,245.84372,111.48779)" /></defs><g
     id="layer2"
     style="opacity:1"
     transform="translate(-501.64961,-140.38827)"><path
       id="path9-3-8"
       style="baseline-shift:baseline;display:inline;overflow:visible;vector-effect:none;fill:url(#linearGradient7-2);fill-opacity:1;stroke:none;stroke-width:0.640682;stroke-linecap:round;enable-background:accumulate;stop-color:#000000"
       inkscape:label="path9-3"
       d="m 598.77642,140.48438 c -10.62642,0 -19.24543,8.61902 -19.24543,19.24544 v 33.0704 c 0,10.62643 8.61901,19.24543 19.24543,19.24543 10.62643,0 19.24676,-8.619 19.24676,-19.24543 v -33.0704 c 0,-10.62642 -8.62033,-19.24544 -19.24676,-19.24544 z m 96.302,9.51495 -2.48378,0.006 c -8.57199,0.0231 -24.77912,-0.14107 -30.48498,0.0814 -2.37007,0.0924 -8.24637,0.60906 -13.42436,4.73744 -1.53922,1.22722 -8.44783,5.61909 -9.75035,14.61923 -0.72678,5.02185 -1.09013,10.75215 -1.40113,16.51269 0.75657,-8.10141 9.64885,-12.75631 17.36223,-13.08963 0,0 0.79146,-1.57747 1.44617,-2.52583 1.21558,-1.76079 2.93408,-2.99618 5.68335,-3.28466 8.9262,-0.93661 15.89191,0.9692 23.94546,-2.0772 4.26026,-1.61153 7.40196,-5.65132 8.66076,-12.53706 z m -109.6171,9.41298 h 6.86465 c 1.69438,0 3.05852,1.36415 3.05852,3.05853 0,1.69439 -1.36414,3.05853 -3.05852,3.05853 h -6.86465 c -1.69438,0 -3.05853,-1.36414 -3.05853,-3.05853 0,-1.69438 1.36415,-3.05853 3.05853,-3.05853 z m 19.66525,0 h 6.86464 c 1.69439,0 3.05853,1.36415 3.05853,3.05853 0,1.69439 -1.36414,3.05853 -3.05853,3.05853 h -6.86464 c -1.69439,0 -3.05853,-1.36414 -3.05853,-3.05853 0,-1.69438 1.36414,-3.05853 3.05853,-3.05853 z m -19.66525,9.50369 h 6.86465 c 1.69438,0 3.05852,1.36382 3.05852,3.0582 0,1.69439 -1.36414,3.05853 -3.05852,3.05853 h -6.86465 c -1.69438,0 -3.05853,-1.36414 -3.05853,-3.05853 0,-1.69438 1.36415,-3.0582 3.05853,-3.0582 z m 19.66525,0 h 6.86464 c 1.69439,0 3.05853,1.36382 3.05853,3.0582 0,1.69439 -1.36414,3.05853 -3.05853,3.05853 h -6.86464 c -1.69439,0 -3.05853,-1.36414 -3.05853,-3.05853 0,-1.69438 1.36414,-3.0582 3.05853,-3.0582 z m 76.23514,7.22354 c -0.78621,0.004 -1.5724,0.007 -2.35862,0.009 -8.4549,0.0228 -18.68431,-0.0439 -24.21894,0.17183 -2.80959,0.10957 -7.14503,1.65023 -11.02799,5.292 -2.17219,2.03727 -3.53618,4.64731 -4.52522,7.51853 -1.59597,4.68121 -2.1208,9.74486 -2.71487,13.82861 -0.36738,2.48114 -0.7213,4.59166 -1.08793,6.48158 -0.58299,1.52115 -1.10736,2.98536 -1.71302,4.33618 -1.05573,2.34811 -2.35082,4.45175 -3.98291,6.15612 -2.32976,2.47614 -5.36923,4.18684 -8.19128,5.36981 -8.66955,3.62196 -15.51084,3.7356 -15.51084,3.7356 0,0 1.64039,0.11091 4.50635,0.0473 2.72098,-0.0603 7.11163,-0.31725 11.75008,-1.6448 3.1546,-0.90057 6.68787,-2.44866 9.72486,-5.14236 2.10505,-1.89608 3.8189,-4.25122 5.14467,-6.87226 1.10418,-2.1774 1.92347,-4.40567 2.84763,-6.44615 0.64867,-1.43699 1.2397,-2.86855 1.83022,-4.28056 1.14684,-2.74158 2.19091,-4.99688 3.61574,-6.78419 1.42483,-1.78731 3.21457,-3.18906 6.21407,-4.30571 2.27597,-0.8473 5.72375,-0.79285 9.40138,-0.73434 3.56272,0.0567 7.73766,0.0618 11.11971,-1.60641 3.56737,-1.75967 7.5421,-5.50209 8.8551,-12.68439 0.14792,-0.80915 0.25531,-1.6255 0.32181,-2.44537 z m -95.90039,2.27982 h 6.86465 c 1.69438,0 3.05852,1.36415 3.05852,3.05854 0,1.69438 -1.36414,3.05853 -3.05852,3.05853 h -6.86465 c -1.69438,0 -3.05853,-1.36415 -3.05853,-3.05853 0,-1.69439 1.36415,-3.05854 3.05853,-3.05854 z m 19.66525,0 h 6.86464 c 1.69439,0 3.05853,1.36415 3.05853,3.05854 0,1.69438 -1.36414,3.05853 -3.05853,3.05853 h -6.86464 c -1.69439,0 -3.05853,-1.36415 -3.05853,-3.05853 0,-1.69439 1.36414,-3.05854 3.05853,-3.05854 z m -32.98234,4.20242 c -1.14024,1.2e-4 -2.0645,0.92438 -2.06462,2.06462 v 8.55648 c 0,15.06087 11.77594,27.34532 26.63219,28.15748 v 15.33901 h -14.01865 c -1.14025,1.1e-4 -2.06483,0.92436 -2.06495,2.06462 1.1e-4,1.14025 0.9247,2.0645 2.06495,2.06462 h 32.16788 c 1.14025,-1.2e-4 2.0645,-0.92437 2.06462,-2.06462 -1.2e-4,-1.14026 -0.92437,-2.06451 -2.06462,-2.06462 h -14.01866 v -15.33901 c 14.85626,-0.81216 26.6322,-13.09661 26.6322,-28.15748 v -8.55648 c -1.2e-4,-1.14024 -0.92471,-2.0645 -2.06496,-2.06462 -1.14074,-5.7e-4 -2.06582,0.92388 -2.06595,2.06462 v 8.55648 c 0,13.37053 -10.69877,24.07061 -24.06929,24.07061 h -0.9949 c -13.37053,0 -24.07062,-10.70008 -24.07062,-24.07061 v -8.55648 c -1.2e-4,-1.14024 -0.92437,-2.0645 -2.06462,-2.06462 z m 82.17442,13.18334 c -1.1864,0.15987 -2.34278,0.54463 -3.40054,1.1174 -0.30679,0.14332 -0.60194,0.30527 -0.88564,0.4837 -3.54782,3.05014 -5.24375,8.11251 -7.34438,13.2916 -2.30931,5.69355 -6.17369,10.80746 -10.62374,15.06752 2.76342,-1.22544 5.25313,-2.59731 7.47118,-4.05575 7.50654,-4.93581 11.93794,-10.75344 13.34557,-15.65783 0.77913,-2.71462 1.20847,-6.0727 1.43755,-10.24664 z" /><path
       style="font-size:50.8px;font-family:Michroma;-inkscape-font-specification:'Michroma, Normal';font-variation-settings:'wght' 700;fill:#f9f9f9;stroke-width:0.22493"
       d="m 501.64961,287.23244 v -32.33905 h 30.48629 v 3.36865 h -26.44391 v 10.77969 h 25.24383 v 3.36865 h -25.24383 v 14.82206 z m 36.38143,0 v -32.33905 h 4.04239 v 32.33905 z m 24.94907,0.4632 q -4.06344,0 -6.90573,-0.42109 -2.8423,-0.40003 -4.58979,-1.66327 -1.74749,-1.28429 -2.54754,-3.83184 -0.80006,-2.54754 -0.80006,-6.80046 0,-4.1266 0.80006,-6.61098 0.80005,-2.48438 2.54754,-3.74763 1.74749,-1.26324 4.58979,-1.68432 2.84229,-0.42108 6.90573,-0.42108 4.0845,0 6.90574,0.42108 2.8423,0.42108 4.58979,1.68432 1.74749,1.26325 2.54754,3.74763 0.80005,2.48438 0.80005,6.61098 0,4.25292 -0.80005,6.80046 -0.80005,2.54755 -2.54754,3.83184 -1.74749,1.26324 -4.58979,1.66327 -2.82124,0.42109 -6.90574,0.42109 z m 10.80074,-12.71666 q 0,-3.01073 -0.31581,-4.82139 -0.29475,-1.81064 -1.3264,-2.71597 -1.03165,-0.92638 -3.22128,-1.24219 -2.16857,-0.31581 -5.93725,-0.31581 -3.74762,0 -5.93724,0.31581 -2.18963,0.31581 -3.22128,1.24219 -1.03165,0.90533 -1.34746,2.71597 -0.29476,1.81066 -0.29476,4.82139 0,3.116 0.29476,4.98981 0.31581,1.87381 1.34746,2.82124 1.03165,0.92639 3.22128,1.2422 2.18962,0.29476 5.93724,0.29476 3.76868,0 5.93725,-0.29476 2.18963,-0.31581 3.22128,-1.2422 1.03165,-0.94743 1.3264,-2.82124 0.31581,-1.87381 0.31581,-4.98981 z m 15.4958,12.25346 -9.3059,-24.25429 h 4.58978 l 7.38999,20.99092 h 0.0421 l 8.0637,-20.99092 h 4.04238 l 7.9795,20.99092 h 0.0421 l 7.47419,-20.99092 h 4.58979 l -9.3059,24.25429 h -5.38984 L 602.09856,267.589 h -0.0421 l -7.38998,19.64344 z m 74.84722,-9.348 q 0,-1.87381 -0.29476,-2.94757 -0.29475,-1.07376 -1.3264,-1.57905 -1.03165,-0.52636 -3.20023,-0.67373 -2.16856,-0.16844 -5.93724,-0.2316 l -11.70606,-0.16843 q -4.33714,-0.0632 -6.9689,-0.52635 -2.63176,-0.46319 -3.97922,-1.45273 -1.34746,-1.0106 -1.81065,-2.69492 -0.44213,-1.68433 -0.44213,-4.21082 0,-2.75809 0.61056,-4.54768 0.63162,-1.78959 2.25278,-2.80019 1.64223,-1.0106 4.63191,-1.41062 2.98967,-0.42109 7.72684,-0.42109 h 9.01114 q 4.29503,0 7.15839,0.27371 2.86334,0.2737 4.54767,1.26324 1.68433,0.98954 2.40017,3.07389 0.73689,2.08436 0.73689,5.72672 h -4.04238 q 0,-2.82125 -0.54741,-4.25293 -0.52635,-1.45273 -1.76854,-1.97908 -1.22113,-0.52636 -3.30549,-0.56846 -2.08435,-0.0421 -5.1793,-0.0421 h -8.8006 q -3.76868,0 -6.04252,0.14738 -2.25278,0.14738 -3.41076,0.67373 -1.15797,0.52635 -1.558,1.68432 -0.37897,1.15798 -0.37897,3.17917 0,1.70538 0.2737,2.73703 0.2737,1.03165 1.22114,1.57905 0.96849,0.52636 2.96862,0.73689 2.00014,0.18949 5.453,0.23159 l 12.54823,0.16844 q 4.42135,0.0632 7.05311,0.52635 2.65282,0.44214 3.95817,1.45273 1.3264,1.0106 1.74749,2.73703 0.44213,1.70538 0.44213,4.31609 0,2.8423 -0.5474,4.77927 -0.52635,1.91592 -2.0633,3.0739 -1.53695,1.15797 -4.44241,1.66327 -2.90546,0.50529 -7.64263,0.50529 h -9.85331 q -4.31608,0 -7.24259,-0.37897 -2.92652,-0.37897 -4.67401,-1.51589 -1.72644,-1.15798 -2.48438,-3.43181 -0.75794,-2.27385 -0.75794,-6.06358 h 4.04238 q 0,2.96863 0.48424,4.58979 0.48424,1.62116 1.68433,2.337 1.22113,0.69478 3.3897,0.84217 2.18962,0.12632 5.55827,0.12632 h 9.64277 q 3.76868,0 5.9583,-0.2316 2.18962,-0.25264 3.24233,-0.92637 1.0527,-0.69479 1.34746,-1.97908 0.31581,-1.28431 0.31581,-3.38971 z m 24.78064,9.348 v -28.9704 h -16.16953 v -3.36865 h 36.38144 v 3.36865 h -16.16953 v 28.9704 z m 40.33961,0 v -28.9704 h -16.16953 v -3.36865 h 36.38143 v 3.36865 H 733.2865 v 28.9704 z"
       id="text5"
       aria-label="FlowSTT" /></g></svg>
