<?xml version="1.0" encoding="UTF-8" standalone="no"?>
<!-- Created with Inkscape (http://www.inkscape.org/) -->

<svg
   width="936.59113"
   height="557.54803"
   viewBox="0 0 247.80641 147.51791"
   version="1.1"
   id="svg1"
   xml:space="preserve"
   sodipodi:docname="flowstt-portrait-light.svg"
   inkscape:version="1.4.2 (ebf0e940d0, 2025-05-08)"
   xmlns:inkscape="http://www.inkscape.org/namespaces/inkscape"
   xmlns:sodipodi="http://sodipodi.sourceforge.net/DTD/sodipodi-0.dtd"
   xmlns:xlink="http://www.w3.org/1999/xlink"
   xmlns="http://www.w3.org/2000/svg"
   xmlns:svg="http://www.w3.org/2000/svg"><sodipodi:namedview
     id="namedview1"
     pagecolor="#ffffff"
     bordercolor="#000000"
     borderopacity="0.25"
     inkscape:showpageshadow="2"
     inkscape:pageopacity="0.0"
     inkscape:pagecheckerboard="0"
     inkscape:deskcolor="#d1d1d1"
     inkscape:zoom="1.4435328"
     inkscape:cx="467.94919"
     inkscape:cy="278.48346"
     inkscape:window-width="3046"
     inkscape:window-height="1664"
     inkscape:window-x="0"
     inkscape:window-y="0"
     inkscape:window-maximized="1"
     inkscape:current-layer="layer2" /><defs
     id="defs1"><linearGradient
       id="linearGradient10"><stop
         style="stop-color:#a11010;stop-opacity:1;"
         offset="0.18969926"
         id="stop9" /><stop
         style="stop-color:#cec81c;stop-opacity:1;"
         offset="0.63229883"
         id="stop10" /></linearGradient><linearGradient
       xlink:href="#linearGradient10"
       id="linearGradient7"
       x1="540.92609"
       y1="48.872143"
       x2="666.33551"
       y2="198.32933"
       gradientUnits="userSpaceOnUse"
       gradientTransform="matrix(0.64189432,0,0,0.64189432,245.03679,111.33679)" /><linearGradient
       inkscape:collect="always"
       xlink:href="#linearGradient10"
       id="linearGradient7-3"
       x1="540.92609"
       y1="48.872143"
       x2="666.33551"
       y2="198.32933"
       gradientUnits="userSpaceOnUse"
       gradientTransform="matrix(0.63825484,0,0,0.63825484,-254.71726,-28.589567)" /></defs><g
     id="layer2"
     style="opacity:1"
     transform="translate(-501.64961,-140.38827)"><path
       style="font-size:50.8px;font-family:Michroma;-inkscape-font-specification:'Michroma, Normal';font-variation-settings:'wght' 700;fill:#1b1b1b;fill-opacity:1;stroke-width:0.22493"
       d="m 501.64961,287.23244 v -32.33905 h 30.48629 v 3.36865 h -26.44391 v 10.77969 h 25.24383 v 3.36865 h -25.24383 v 14.82206 z m 36.38143,0 v -32.33905 h 4.04239 v 32.33905 z m 24.94907,0.4632 q -4.06344,0 -6.90573,-0.42109 -2.8423,-0.40003 -4.58979,-1.66327 -1.74749,-1.28429 -2.54754,-3.83184 -0.80006,-2.54754 -0.80006,-6.80046 0,-4.1266 0.80006,-6.61098 0.80005,-2.48438 2.54754,-3.74763 1.74749,-1.26324 4.58979,-1.68432 2.84229,-0.42108 6.90573,-0.42108 4.0845,0 6.90574,0.42108 2.8423,0.42108 4.58979,1.68432 1.74749,1.26325 2.54754,3.74763 0.80005,2.48438 0.80005,6.61098 0,4.25292 -0.80005,6.80046 -0.80005,2.54755 -2.54754,3.83184 -1.74749,1.26324 -4.58979,1.66327 -2.82124,0.42109 -6.90574,0.42109 z m 10.80074,-12.71666 q 0,-3.01073 -0.31581,-4.82139 -0.29475,-1.81064 -1.3264,-2.71597 -1.03165,-0.92638 -3.22128,-1.24219 -2.16857,-0.31581 -5.93725,-0.31581 -3.74762,0 -5.93724,0.31581 -2.18963,0.31581 -3.22128,1.24219 -1.03165,0.90533 -1.34746,2.71597 -0.29476,1.81066 -0.29476,4.82139 0,3.116 0.29476,4.98981 0.31581,1.87381 1.34746,2.82124 1.03165,0.92639 3.22128,1.2422 2.18962,0.29476 5.93724,0.29476 3.76868,0 5.93725,-0.29476 2.18963,-0.31581 3.22128,-1.2422 1.03165,-0.94743 1.3264,-2.82124 0.31581,-1.87381 0.31581,-4.98981 z m 15.4958,12.25346 -9.3059,-24.25429 h 4.58978 l 7.38999,20.99092 h 0.0421 l 8.0637,-20.99092 h 4.04238 l 7.9795,20.99092 h 0.0421 l 7.47419,-20.99092 h 4.58979 l -9.3059,24.25429 h -5.38984 L 602.09856,267.589 h -0.0421 l -7.38998,19.64344 z m 74.84722,-9.348 q 0,-1.87381 -0.29476,-2.94757 -0.29475,-1.07376 -1.3264,-1.57905 -1.03165,-0.52636 -3.20023,-0.67373 -2.16856,-0.16844 -5.93724,-0.2316 l -11.70606,-0.16843 q -4.33714,-0.0632 -6.9689,-0.52635 -2.63176,-0.46319 -3.97922,-1.45273 -1.34746,-1.0106 -1.81065,-2.69492 -0.44213,-1.68433 -0.44213,-4.21082 0,-2.75809 0.61056,-4.54768 0.63162,-1.78959 2.25278,-2.80019 1.64223,-1.0106 4.63191,-1.41062 2.98967,-0.42109 7.72684,-0.42109 h 9.01114 q 4.29503,0 7.15839,0.27371 2.86334,0.2737 4.54767,1.26324 1.68433,0.98954 2.40017,3.07389 0.73689,2.08436 0.73689,5.72672 h -4.04238 q 0,-2.82125 -0.54741,-4.25293 -0.52635,-1.45273 -1.76854,-1.97908 -1.22113,-0.52636 -3.30549,-0.56846 -2.08435,-0.0421 -5.1793,-0.0421 h -8.8006 q -3.76868,0 -6.04252,0.14738 -2.25278,0.14738 -3.41076,0.67373 -1.15797,0.52635 -1.558,1.68432 -0.37897,1.15798 -0.37897,3.17917 0,1.70538 0.2737,2.73703 0.2737,1.03165 1.22114,1.57905 0.96849,0.52636 2.96862,0.73689 2.00014,0.18949 5.453,0.23159 l 12.54823,0.16844 q 4.42135,0.0632 7.05311,0.52635 2.65282,0.44214 3.95817,1.45273 1.3264,1.0106 1.74749,2.73703 0.44213,1.70538 0.44213,4.31609 0,2.8423 -0.5474,4.77927 -0.52635,1.91592 -2.0633,3.0739 -1.53695,1.15797 -4.44241,1.66327 -2.90546,0.50529 -7.64263,0.50529 h -9.85331 q -4.31608,0 -7.24259,-0.37897 -2.92652,-0.37897 -4.67401,-1.51589 -1.72644,-1.15798 -2.48438,-3.43181 -0.75794,-2.27385 -0.75794,-6.06358 h 4.04238 q 0,2.96863 0.48424,4.58979 0.48424,1.62116 1.68433,2.337 1.22113,0.69478 3.3897,0.84217 2.18962,0.12632 5.55827,0.12632 h 9.64277 q 3.76868,0 5.9583,-0.2316 2.18962,-0.25264 3.24233,-0.92637 1.0527,-0.69479 1.34746,-1.97908 0.31581,-1.28431 0.31581,-3.38971 z m 24.78064,9.348 v -28.9704 h -16.16953 v -3.36865 h 36.38144 v 3.36865 h -16.16953 v 28.9704 z m 40.33961,0 v -28.9704 h -16.16953 v -3.36865 h 36.38143 v 3.36865 H 733.2865 v 28.9704 z"
       id="text5"
       aria-label="FlowSTT" /><path
       id="path9-3-4"
       style="baseline-shift:baseline;display:inline;overflow:visible;vector-effect:none;fill:url(#linearGradient7-3);fill-opacity:1;stroke:none;stroke-width:0.638255;stroke-linecap:round;enable-background:accumulate;stop-color:#000000"
       inkscape:label="path9-3"
       d="m 96.87855,0.2971928 c -10.58617,0 -19.17253,8.5863702 -19.17253,19.1725352 V 52.41486 c 0,10.586172 8.58636,19.172531 19.17253,19.172531 10.58617,0 19.17385,-8.586359 19.17385,-19.172531 V 19.469728 c 0,-10.586165 -8.58768,-19.1725352 -19.17385,-19.1725352 z m 95.93721,9.4789062 -2.47437,0.0064 c -8.53952,0.02304 -24.68526,-0.140531 -30.3695,0.08114 -2.36109,0.09208 -8.21514,0.60675 -13.37352,4.719498 -1.53338,1.222571 -8.41583,5.597802 -9.71341,14.563853 -0.72403,5.002826 -1.086,10.711422 -1.39583,16.450137 0.75371,-8.070719 9.61231,-12.707985 17.29647,-13.04005 0,0 0.78846,-1.571492 1.44069,-2.516256 1.21097,-1.754122 2.92297,-2.984837 5.66182,-3.272218 8.89239,-0.933065 15.83172,0.965527 23.85476,-2.069337 4.24412,-1.605422 7.37393,-5.629912 8.62795,-12.489569 z M 83.61389,19.153422 h 6.83864 c 1.68797,0 3.04694,1.358978 3.04694,3.046945 0,1.687967 -1.35897,3.046946 -3.04694,3.046946 h -6.83864 c -1.68797,0 -3.04695,-1.358979 -3.04695,-3.046946 0,-1.687967 1.35898,-3.046945 3.04695,-3.046945 z m 19.59075,0 h 6.83864 c 1.68797,0 3.04694,1.358978 3.04694,3.046945 0,1.687967 -1.35897,3.046946 -3.04694,3.046946 h -6.83864 c -1.68797,0 -3.04694,-1.358979 -3.04694,-3.046946 0,-1.687967 1.35897,-3.046945 3.04694,-3.046945 z m -19.59075,9.467693 h 6.83864 c 1.68797,0 3.04694,1.358647 3.04694,3.046614 0,1.687967 -1.35897,3.046946 -3.04694,3.046946 h -6.83864 c -1.68797,0 -3.04695,-1.358979 -3.04695,-3.046946 0,-1.687967 1.35898,-3.046614 3.04695,-3.046614 z m 19.59075,0 h 6.83864 c 1.68797,0 3.04694,1.358647 3.04694,3.046614 0,1.687967 -1.35897,3.046946 -3.04694,3.046946 h -6.83864 c -1.68797,0 -3.04694,-1.358979 -3.04694,-3.046946 0,-1.687967 1.35897,-3.046614 3.04694,-3.046614 z m 75.94637,7.196171 c -0.78323,0.0038 -1.56645,0.0068 -2.34969,0.0089 -8.42287,0.02272 -18.61353,-0.04378 -24.12719,0.17118 -2.79896,0.109154 -7.11797,1.643979 -10.98622,5.27196 -2.16397,2.029548 -3.52279,4.629702 -4.50808,7.490048 -1.58993,4.663479 -2.11277,9.707945 -2.70459,13.776226 -0.36598,2.471744 -0.71857,4.574264 -1.08381,6.457033 -0.58078,1.515383 -1.10316,2.974044 -1.70653,4.319747 -1.05172,2.339217 -2.34191,4.434888 -3.96782,6.132806 -2.32093,2.466759 -5.34889,4.170976 -8.16026,5.349469 -8.6367,3.60824 -15.45208,3.721447 -15.45208,3.721447 0,0 1.63417,0.110495 4.48928,0.04717 2.71067,-0.06012 7.0847,-0.316057 11.70557,-1.638579 3.14266,-0.89715 6.66254,-2.439378 9.68802,-5.122876 2.09708,-1.888902 3.80444,-4.235114 5.12519,-6.846228 1.1,-2.169153 1.91618,-4.388985 2.83684,-6.421737 0.64621,-1.431542 1.235,-2.857677 1.82329,-4.26434 1.14249,-2.731201 2.18261,-4.977954 3.60204,-6.758493 1.41943,-1.78054 3.2024,-3.176978 6.19053,-4.289405 2.26735,-0.844085 5.70207,-0.78984 9.36578,-0.731555 3.54922,0.05649 7.70835,0.06159 11.07758,-1.600322 3.55386,-1.753005 7.51353,-5.481249 8.82156,-12.636348 0.14736,-0.806084 0.25434,-1.619342 0.32059,-2.436104 z m -95.53712,2.271191 h 6.83864 c 1.68797,0 3.04694,1.358979 3.04694,3.046946 0,1.687967 -1.35897,3.046945 -3.04694,3.046945 h -6.83864 c -1.68797,0 -3.04695,-1.358978 -3.04695,-3.046945 0,-1.687967 1.35898,-3.046946 3.04695,-3.046946 z m 19.59075,0 h 6.83864 c 1.68797,0 3.04694,1.358979 3.04694,3.046946 0,1.687967 -1.35897,3.046945 -3.04694,3.046945 h -6.83864 c -1.68797,0 -3.04694,-1.358978 -3.04694,-3.046945 0,-1.687967 1.35897,-3.046946 3.04694,-3.046946 z m -32.8574,4.186499 c -1.13593,1.21e-4 -2.05668,0.920874 -2.0568,2.056802 v 8.524059 c 0,15.00382 11.73133,27.241744 26.53131,28.050828 V 96.187564 H 80.8562 c -1.13593,1.15e-4 -2.05701,0.920868 -2.05713,2.056804 1.1e-4,1.13593 0.9212,2.056692 2.05713,2.056802 h 32.04603 c 1.13593,-1.1e-4 2.05668,-0.920872 2.0568,-2.056802 -1.2e-4,-1.135936 -0.92087,-2.056689 -2.0568,-2.056804 H 98.93667 V 80.906665 c 14.79998,-0.809084 26.53132,-13.047008 26.53132,-28.050828 v -8.524059 c -1.2e-4,-1.135928 -0.92121,-2.056681 -2.05713,-2.056802 -1.13642,-5.68e-4 -2.05801,0.920382 -2.05813,2.056802 v 8.524059 c 0,13.319887 -10.65824,23.979439 -23.97811,23.979439 h -0.99114 c -13.31988,0 -23.97944,-10.659552 -23.97944,-23.979439 v -8.524059 c -1.2e-4,-1.135928 -0.92087,-2.056681 -2.0568,-2.056802 z m 81.86315,13.133395 c -1.18191,0.15927 -2.33391,0.542568 -3.38766,1.113168 -0.30563,0.142777 -0.59966,0.304122 -0.88229,0.481876 -3.53438,3.038578 -5.22388,8.081774 -7.31656,13.241247 -2.30056,5.67198 -6.1503,10.766524 -10.5835,15.010446 2.75296,-1.220797 5.23323,-2.587472 7.44288,-4.040389 7.47811,-4.917116 11.89272,-10.712699 13.29502,-15.598521 0.77618,-2.704331 1.20389,-6.049692 1.43211,-10.207827 z"
       transform="translate(501.64961,140.38827)" /></g></svg>
